<svg width="81" height="24" viewBox="0 0 81 24" fill="none" xmlns="http://www.w3.org/2000/svg">
<path d="M70.0422 0H9.78293C9.372 0 9.01961 0.0585366 8.6081 0.117073C8.19717 0.176195 7.84478 0.293854 7.49239 0.470049C7.14 0.645658 6.84615 0.880976 6.55288 1.17483C6.25903 1.4681 6.0243 1.76195 5.8481 2.11434C5.67762 2.46742 5.55875 2.84316 5.49512 3.23005C5.43659 3.64156 5.37805 4.05249 5.37805 4.40488V19.0291C5.37805 19.4406 5.43659 19.793 5.49512 20.2039C5.55425 20.6148 5.67191 20.9672 5.8481 21.3196C6.02371 21.7311 6.25903 22.0244 6.55288 22.3182C6.84615 22.6121 7.14 22.8468 7.49239 23.023C7.84219 23.2015 8.21924 23.3206 8.6081 23.3754C9.01961 23.434 9.372 23.4925 9.78293 23.4925H71.2171C71.628 23.4925 71.9804 23.434 72.3919 23.3754C72.7808 23.3206 73.1578 23.2015 73.5076 23.023C73.86 22.8474 74.1539 22.6121 74.4471 22.3182C74.741 22.0244 74.9757 21.7311 75.1519 21.3787C75.3305 21.0288 75.4496 20.6515 75.5043 20.2624C75.5634 19.8515 75.6219 19.4991 75.6219 19.0882V18.5596V5.57971V4.93346V4.40488C75.6219 3.99395 75.5634 3.64156 75.5043 3.23005C75.4496 2.84117 75.3305 2.46411 75.1519 2.11434C74.9757 1.76195 74.741 1.4681 74.4471 1.17483C74.1539 0.880976 73.86 0.646244 73.5076 0.470049C73.1578 0.291375 72.7808 0.172091 72.3919 0.117073C71.9804 0.0585366 71.628 0 71.2171 0H70.0422Z" fill="#B7B7B7"/>
<path d="M10.3115 22.9646H9.78291C9.43052 22.9646 9.07813 22.9646 8.66721 22.8475C8.32494 22.7849 7.99022 22.6864 7.66857 22.5537C7.37472 22.3775 7.08145 22.2013 6.84613 21.966C6.61199 21.7318 6.37667 21.4374 6.25901 21.1441C6.0834 20.8503 6.02428 20.5564 5.96516 20.1455C5.90662 19.7346 5.84808 19.3231 5.84808 19.0298V4.93359V4.405C5.84808 4.11174 5.84808 3.70022 5.96516 3.2893C6.08282 2.99544 6.14135 2.64305 6.31755 2.34978C6.49374 2.05593 6.66994 1.76208 6.90525 1.52735C7.13999 1.29261 7.43384 1.11642 7.72711 0.940224C8.02096 0.764029 8.37335 0.704907 8.72574 0.64637C9.07813 0.529297 9.48906 0.529297 9.78291 0.529297H71.2171C71.5109 0.529297 71.9218 0.529297 72.3328 0.64637C72.6852 0.704907 72.979 0.822565 73.3314 0.940224C73.6253 1.11583 73.9185 1.29261 74.1538 1.52735C74.3886 1.76208 74.6233 2.05593 74.741 2.34978C74.9172 2.64305 74.9757 2.99544 75.0348 3.2893C75.0933 3.64169 75.1519 4.05261 75.1519 4.405V19.0304C75.1519 19.3828 75.0933 19.7352 75.0348 20.1461C74.9721 20.4883 74.8736 20.823 74.741 21.1447C74.5648 21.438 74.3886 21.7318 74.1538 21.9666C73.9185 22.2019 73.6253 22.4366 73.3314 22.5543C73.0375 22.7299 72.7443 22.789 72.3328 22.8475C71.9804 22.9061 71.5694 22.9061 71.2171 22.9652H10.3115V22.9646Z" fill="#000001"/>
<path d="M19.9437 11.9217C19.9437 10.2768 21.2948 9.5135 21.3533 9.45496C20.59 8.33867 19.4151 8.22159 19.0042 8.16247C18.0056 8.0454 17.0661 8.75018 16.5375 8.75018C16.0089 8.75018 15.245 8.16247 14.4231 8.16247C13.366 8.16247 12.3673 8.80872 11.7802 9.74881C10.6639 11.6864 11.4864 14.6232 12.6021 16.2089C13.1307 16.9728 13.7769 17.8538 14.5993 17.8538C15.4212 17.7953 15.7151 17.3252 16.7137 17.3252C17.7117 17.3252 17.9471 17.8538 18.828 17.8538C19.709 17.8538 20.2376 17.0899 20.7656 16.2674C21.4118 15.3871 21.6471 14.5055 21.6471 14.447C21.6471 14.5055 19.9437 13.8598 19.9437 11.9217ZM18.2994 7.16442C18.7104 6.63584 19.0628 5.87194 18.9451 5.10862C18.2994 5.10862 17.5355 5.51955 17.0661 6.10725C16.6546 6.57672 16.3022 7.34062 16.4198 8.10394C17.1246 8.10394 17.8879 7.69301 18.2989 7.16442H18.2994ZM30.2222 15.9145H27.4616L26.8153 17.9117H25.6405L28.2834 10.6286H29.4583L32.1012 17.9117H30.927L30.2222 15.9145ZM27.7549 15.0335H29.9869L28.8711 11.8034H28.8126L27.7554 15.0335H27.7549ZM37.7986 15.2682C37.7986 16.9131 36.9176 17.9703 35.5666 17.9703C34.8032 17.9703 34.2155 17.6179 33.9217 17.0308V19.6737H32.806V12.6259H33.8631V13.5069C34.157 12.9192 34.8032 12.5668 35.5666 12.5668C36.8585 12.5082 37.7986 13.6239 37.7986 15.2682ZM36.6237 15.2682C36.6237 14.2116 36.0951 13.5063 35.2142 13.5063C34.3917 13.5063 33.8046 14.2111 33.8046 15.2682C33.8046 16.3254 34.3917 17.0302 35.2142 17.0302C36.0951 17.0302 36.6237 16.3254 36.6237 15.2682ZM43.613 15.2682C43.613 16.9131 42.732 17.9703 41.381 17.9703C40.6177 17.9703 40.03 17.6179 39.7361 17.0308V19.6737H38.621V12.6259H39.6782V13.5069C39.972 12.9192 40.6183 12.5668 41.3816 12.5668C42.7326 12.5082 43.6136 13.6239 43.6136 15.2682H43.613ZM42.4967 15.2682C42.4967 14.2116 41.9681 13.5063 41.0871 13.5063C40.2653 13.5063 39.6776 14.2111 39.6776 15.2682C39.6776 16.3254 40.2653 17.0302 41.0871 17.0302C41.9681 17.0302 42.4967 16.3254 42.4967 15.2682ZM47.4893 15.8559C47.5478 16.5607 48.2526 17.0308 49.2512 17.0308C50.1908 17.0308 50.837 16.5607 50.837 15.9145C50.837 15.3273 50.4255 15.0335 49.486 14.7988L48.5465 14.564C47.1954 14.2116 46.6083 13.6239 46.6083 12.6259C46.6083 11.3919 47.724 10.511 49.2512 10.511C50.7779 10.511 51.8356 11.3919 51.8942 12.6259H50.7779C50.7193 11.9211 50.1322 11.4511 49.2512 11.4511C48.3703 11.4511 47.7831 11.9211 47.7831 12.5668C47.7831 13.0953 48.1941 13.3892 49.1336 13.6239L49.956 13.8001C51.4241 14.1525 52.0704 14.7402 52.0704 15.7974C52.0704 17.1478 50.9541 18.0288 49.2512 18.0288C47.6064 18.0288 46.5498 17.207 46.4907 15.8559H47.4893ZM54.3024 11.334V12.5673H55.3004V13.4483H54.303V16.3851C54.303 16.8546 54.4786 17.0308 54.9486 17.0308H55.301V17.9117C55.1839 17.9703 54.9486 17.9703 54.7139 17.9703C53.6567 17.9703 53.2458 17.5593 53.2458 16.5613V13.5069H52.4819V12.6259H53.2458V11.3925H54.303V11.334H54.3024ZM55.9467 15.2688C55.9467 13.6239 56.9453 12.5668 58.4719 12.5668C59.9991 12.5668 60.9978 13.6239 60.9978 15.2688C60.9978 16.9722 59.9991 17.9703 58.4719 17.9703C56.8862 17.9703 55.9467 16.9131 55.9467 15.2688ZM59.8815 15.2688C59.8815 14.094 59.3529 13.4483 58.4719 13.4483C57.591 13.4483 57.0624 14.094 57.0624 15.2688C57.0624 16.4431 57.591 17.0893 58.4719 17.0893C59.3529 17.0893 59.8815 16.3845 59.8815 15.2688ZM61.8788 12.5673H62.9359V13.5069C63.1115 12.9192 63.5816 12.5668 64.2278 12.5668C64.404 12.5668 64.5217 12.5668 64.5802 12.6253V13.6239C64.5217 13.5654 64.2864 13.5654 64.1102 13.5654C63.4054 13.5654 62.9945 14.0354 62.9945 14.7988V17.9703H61.8788V12.5673ZM69.6313 16.3254C69.5137 17.2655 68.5156 17.9703 67.3408 17.9703C65.8136 17.9703 64.8155 16.9131 64.8155 15.2688C64.8155 13.6239 65.7551 12.5082 67.2823 12.5082C68.7504 12.5082 69.6899 13.5069 69.6899 15.1512V15.5035H65.9312V15.5621C65.9312 16.4436 66.5184 17.0899 67.3408 17.0899C67.9279 17.0899 68.398 16.796 68.5742 16.326H69.6313V16.3254ZM65.9312 14.7402H68.5742C68.5742 13.9178 68.0456 13.3892 67.2823 13.3892C66.5184 13.3892 65.9898 13.9769 65.9312 14.7402ZM27.5787 5.11037C28.6358 5.11037 29.2235 5.75662 29.2235 6.87233C29.2235 7.98803 28.6358 8.63428 27.5787 8.63428H26.2873V5.11037H27.5792H27.5787ZM26.8739 8.16423H27.5201C28.2249 8.16423 28.695 7.69476 28.695 6.93086C28.695 6.16754 28.2834 5.6975 27.5201 5.6975H26.8739V8.16423ZM29.8698 7.28267C29.8698 6.40169 30.3392 5.93164 31.1026 5.93164C31.8665 5.93164 32.3359 6.46023 32.3359 7.28267C32.3359 8.16364 31.8665 8.63369 31.1026 8.63369C30.3392 8.69223 29.8692 8.16364 29.8692 7.28267H29.8698ZM31.8073 7.28267C31.8073 6.69555 31.5732 6.40169 31.1026 6.40169C30.6331 6.40169 30.3978 6.75408 30.3978 7.28267C30.3978 7.86979 30.6331 8.22218 31.1026 8.22218C31.5726 8.22218 31.8073 7.86979 31.8073 7.28267ZM35.6842 8.63369H35.1556L34.627 6.69613H34.5685L34.0393 8.63369H33.5108L32.806 5.99135H33.3346L33.8046 7.98803H33.8631L34.3917 5.99135H34.9203L35.4489 7.98803H35.5074L35.9775 5.99135H36.5061L35.6842 8.63428V8.63369ZM37.0347 5.99076H37.5632V6.40169H37.6218C37.7394 6.10784 38.0333 5.93164 38.3857 5.93164C38.9728 5.93164 39.3252 6.28403 39.3252 6.93028V8.63369H38.7966V7.04735C38.7966 6.63642 38.621 6.40169 38.2095 6.40169C37.798 6.40169 37.5632 6.63642 37.5632 7.04794V8.57457H37.0347V5.99076ZM40.0891 4.93418H40.6177V8.63369H40.0891V4.93418ZM41.3219 7.28267C41.3219 6.40169 41.7919 5.93164 42.5558 5.93164C43.3191 5.93164 43.7892 6.46023 43.7892 7.28267C43.7892 8.16364 43.3191 8.63369 42.5558 8.63369C41.7919 8.69223 41.3219 8.16364 41.3219 7.28267ZM43.3191 7.28267C43.3191 6.69555 43.0844 6.40169 42.6144 6.40169C42.1443 6.40169 41.9096 6.75408 41.9096 7.28267C41.9096 7.86979 42.1443 8.22218 42.6144 8.22218C43.0253 8.22218 43.3191 7.86979 43.3191 7.28267ZM44.3763 7.86979C44.3763 7.40033 44.7287 7.10647 45.375 7.10647L46.0797 7.04794V6.81262C46.0797 6.51935 45.9035 6.40169 45.5511 6.40169C45.2573 6.40169 45.0811 6.51876 45.0226 6.69555H44.494C44.5525 6.2255 44.9634 5.93164 45.5511 5.93164C46.1968 5.93164 46.6083 6.28403 46.6083 6.81262V8.63311H46.0797V8.2813H46.0212C45.8444 8.57457 45.5511 8.69223 45.1988 8.69223C45.09 8.69488 44.9819 8.67541 44.8809 8.63502C44.7799 8.59462 44.6882 8.53414 44.6113 8.45724C44.5344 8.38033 44.4739 8.28861 44.4335 8.18763C44.3931 8.08665 44.3737 7.97852 44.3763 7.86979ZM46.0797 7.63506V7.40033L45.4335 7.45886C45.0811 7.45886 44.9049 7.63506 44.9049 7.81125C44.9049 8.04598 45.1396 8.16364 45.375 8.16364C45.7859 8.22218 46.0797 7.98745 46.0797 7.63506ZM47.254 7.28325C47.254 6.46081 47.6655 5.93223 48.3703 5.93223C48.7227 5.93223 49.0159 6.10784 49.1921 6.40228H49.2507V4.93359H49.7798V8.63369H49.2512V8.22276H49.1927C49.1097 8.36711 48.9898 8.48674 48.8452 8.56935C48.7007 8.65197 48.5368 8.69458 48.3703 8.69281C47.724 8.69281 47.254 8.16423 47.254 7.28325ZM47.8417 7.28325C47.8417 7.87037 48.135 8.16423 48.5465 8.16423C48.9574 8.16423 49.2512 7.81184 49.2512 7.28325C49.2512 6.75467 48.9574 6.40228 48.5465 6.40228C48.0764 6.40228 47.8417 6.75467 47.8417 7.28325ZM51.8942 7.28267C51.8942 6.40169 52.3636 5.93164 53.1275 5.93164C53.8909 5.93164 54.3609 6.46023 54.3609 7.28267C54.3609 8.16364 53.8909 8.63369 53.1275 8.63369C52.3636 8.69223 51.8942 8.16364 51.8942 7.28267ZM53.8909 7.28267C53.8909 6.69555 53.6561 6.40169 53.1861 6.40169C52.7166 6.40169 52.4813 6.75408 52.4813 7.28267C52.4813 7.86979 52.716 8.22218 53.1861 8.22218C53.5976 8.22218 53.8909 7.86979 53.8909 7.28267ZM55.1242 5.99076H55.6528V6.40169H55.7113C55.829 6.10784 56.1229 5.93164 56.4752 5.93164C57.0624 5.93164 57.4148 6.28403 57.4148 6.93028V8.63369H56.8862V7.04735C56.8862 6.63642 56.7106 6.40169 56.299 6.40169C55.8875 6.40169 55.6528 6.63642 55.6528 7.04794V8.57457H55.1242V5.99076ZM60.293 5.34394V5.99018H60.8801V6.46023H60.293V7.81125C60.293 8.10511 60.4101 8.22218 60.6454 8.22218H60.821V8.63369H60.5277C59.9406 8.63369 59.7053 8.4575 59.7053 7.92891V6.46023H59.2944V6.0493H59.7053V5.34394H60.293ZM61.5849 4.93418H62.1135V6.40228H62.172C62.2897 6.10842 62.5835 5.93223 62.9945 5.93223C63.5816 5.93223 63.934 6.28462 63.934 6.93086V8.63428H63.4054V7.04794C63.4054 6.63701 63.2298 6.40228 62.8183 6.40228C62.4073 6.40228 62.172 6.69555 62.172 7.04794V8.57515H61.6434V4.93418H61.5849ZM66.9293 7.92891C66.8122 8.39837 66.4007 8.69223 65.7551 8.69223C64.9911 8.69223 64.5217 8.16364 64.5217 7.3412C64.5217 6.51935 64.9911 5.93164 65.7551 5.93164C66.5184 5.93164 66.9293 6.46023 66.9293 7.28267V7.45886H65.0503C65.0503 7.92891 65.3435 8.22218 65.7551 8.22218C66.0483 8.22218 66.2836 8.10511 66.4007 7.92891H66.9293ZM65.0503 7.04794H66.4007C66.4007 6.63642 66.1074 6.34315 65.7551 6.34315C65.3435 6.40169 65.1088 6.63642 65.0503 7.04794Z" fill="white"/>
</svg>
